<?xml version="1.0" encoding="UTF-8" standalone="no"?>
<!DOCTYPE svg PUBLIC "-//W3C//DTD SVG 1.1//EN" "http://www.w3.org/Graphics/SVG/1.1/DTD/svg11.dtd">
<svg width="100%" height="100%" viewBox="0 0 4961 3508" version="1.1" xmlns="http://www.w3.org/2000/svg" xmlns:xlink="http://www.w3.org/1999/xlink" xml:space="preserve" xmlns:serif="http://www.serif.com/" style="fill-rule:evenodd;clip-rule:evenodd;stroke-linejoin:round;stroke-miterlimit:2;">
    <g transform="matrix(-1.04419,-0.00454237,0.00473429,-1.08831,4438.75,2929.96)">
        <path d="M2953.01,574.43C2953.01,574.43 3441.28,1150.5 3441.28,1397.38C3441.28,1655.94 3222.49,1865.86 2953.01,1865.86C2683.52,1865.86 2464.73,1655.94 2464.73,1397.38C2464.73,1150.5 2953.01,574.43 2953.01,574.43Z" style="fill:rgb(57,62,70);"/>
        <clipPath id="_clip1">
            <path d="M2953.01,574.43C2953.01,574.43 3441.28,1150.5 3441.28,1397.38C3441.28,1655.94 3222.49,1865.86 2953.01,1865.86C2683.52,1865.86 2464.73,1655.94 2464.73,1397.38C2464.73,1150.5 2953.01,574.43 2953.01,574.43Z"/>
        </clipPath>
        <g clip-path="url(#_clip1)">
            <g transform="matrix(-0.730227,0.00304782,-0.00317659,-0.700624,3442.97,2440.67)">
                <path d="M637.227,817.462L700.994,816.772C728.285,816.772 724.527,814.648 799.465,830.753C822.524,835.709 897.751,867.446 896.235,894.737C877.296,1220.86 835.423,1551.05 764.586,1886.36C764.586,1913.65 755.868,1935.26 738.432,1951.18C720.996,1967.1 698.632,1975.06 671.341,1975.06C644.05,1975.06 622.065,1967.1 605.388,1951.18C588.71,1935.26 579.613,1913.65 578.097,1886.36C506.787,1557.88 453.748,1226.17 430.12,889.283C430.12,861.992 519.209,833.638 541.87,829.39C613.894,815.888 609.936,817.462 637.227,817.462ZM523.514,2284.36C523.514,2243.42 537.918,2208.55 566.725,2179.74C595.532,2150.93 630.404,2136.53 671.341,2136.53C713.794,2136.53 749.045,2150.93 777.094,2179.74C805.143,2208.55 819.168,2243.42 819.168,2284.36C819.168,2325.3 805.143,2360.17 777.094,2388.97C749.045,2417.78 713.794,2432.18 671.341,2432.18C630.404,2432.18 595.532,2417.78 566.725,2388.97C537.918,2360.17 523.514,2325.3 523.514,2284.36Z" style="fill:rgb(148,255,122);fill-rule:nonzero;"/>
            </g>
        </g>
    </g>
    <g transform="matrix(0.586481,0,0,0.586481,570.827,915.759)">
        <path d="M2559.16,585.109C2559.16,618.464 2565.61,649.546 2578.49,678.353C2591.38,707.16 2608.44,732.177 2629.66,753.404C2650.89,774.63 2676.29,791.687 2705.85,804.574C2735.42,817.462 2766.88,823.906 2800.24,823.906C2832.07,823.906 2862.4,817.462 2891.2,804.574C2920.01,791.687 2945.41,774.63 2967.39,753.404C2989.38,732.177 3006.43,707.16 3018.56,678.353C3030.69,649.546 3036.76,618.464 3036.76,585.109C3036.76,551.753 3030.69,520.671 3018.56,491.864C3006.43,463.057 2989.38,437.661 2967.39,415.676C2945.41,393.692 2920.01,376.635 2891.2,364.506C2862.4,352.376 2832.07,346.312 2800.24,346.312C2766.88,346.312 2735.42,352.376 2705.85,364.506C2676.29,376.635 2650.89,393.692 2629.66,415.676C2608.44,437.661 2591.38,463.057 2578.49,491.864C2565.61,520.671 2559.16,551.753 2559.16,585.109ZM3034.48,182.565L3079.97,134.806C3099.68,115.095 3121.66,105.24 3145.92,105.24C3170.18,105.24 3191.41,115.095 3209.6,134.806L3245.99,173.468C3265.7,193.178 3275.55,214.784 3275.55,238.284C3275.55,261.785 3265.7,283.39 3245.99,303.101L3200.5,348.586C3242.96,421.362 3264.18,500.203 3264.18,585.109C3264.18,653.336 3250.54,717.016 3223.25,776.146C3195.95,835.277 3159.57,886.069 3114.08,928.521C3177.76,977.039 3228.17,1037.69 3265.32,1110.46C3302.47,1183.24 3321.04,1262.84 3321.04,1349.26C3321.04,1420.52 3307.39,1487.99 3280.1,1551.67C3252.81,1615.35 3215.67,1670.69 3168.66,1717.69C3121.66,1764.69 3066.32,1801.84 3002.64,1829.13C2938.96,1856.42 2871.49,1870.06 2800.24,1870.06C2727.46,1870.06 2659.23,1856.42 2595.55,1829.13C2531.87,1801.84 2476.15,1764.69 2428.39,1717.69C2380.63,1670.69 2343.11,1615.35 2315.82,1551.67C2288.53,1487.99 2274.88,1420.52 2274.88,1349.26C2274.88,1334.1 2276.02,1313.25 2278.29,1286.72C2280.57,1260.18 2285.12,1234.41 2291.94,1209.39C2298.76,1184.38 2308.62,1162.77 2321.5,1144.58C2334.39,1126.38 2352.21,1117.29 2374.95,1117.29C2388.59,1117.29 2404.51,1122.59 2422.71,1133.2L2463.64,1155.95C2507.61,1183.24 2522.78,1226.45 2509.13,1285.58C2504.58,1305.29 2502.31,1326.52 2502.31,1349.26C2502.31,1390.2 2509.89,1428.48 2525.05,1464.11C2540.21,1499.74 2561.44,1530.82 2588.73,1557.35C2616.02,1583.89 2647.86,1604.73 2684.25,1619.9C2720.64,1635.06 2759.3,1642.64 2800.24,1642.64C2841.17,1642.64 2879.45,1635.06 2915.09,1619.9C2950.72,1604.73 2981.8,1583.89 3008.33,1557.35C3034.86,1530.82 3055.71,1499.74 3070.87,1464.11C3086.03,1428.48 3093.61,1390.2 3093.61,1349.26C3093.61,1308.32 3086.03,1269.66 3070.87,1233.27C3055.71,1196.88 3034.86,1165.04 3008.33,1137.75C2981.8,1110.46 2950.72,1089.24 2915.09,1074.07C2879.45,1058.91 2841.17,1051.33 2800.24,1051.33C2735.04,1051.33 2674.01,1039.2 2617.16,1014.94C2560.3,990.685 2510.65,957.329 2468.19,914.876C2425.74,872.423 2392.38,822.768 2368.13,765.912C2343.87,709.056 2331.74,648.788 2331.74,585.109C2331.74,521.429 2343.87,461.162 2368.13,404.305C2392.38,347.449 2425.74,297.794 2468.19,255.341C2510.65,212.888 2560.3,179.533 2617.16,155.274C2674.01,131.015 2735.04,118.886 2800.24,118.886C2883.62,118.886 2961.71,140.112 3034.48,182.565Z" style="fill:rgb(57,62,70);fill-rule:nonzero;"/>
        <path d="M3302.85,232.599C3302.85,205.308 3311.18,183.323 3327.86,166.645C3344.54,149.967 3366.53,141.628 3393.82,141.628L3462.04,141.628C3489.34,141.628 3511.32,149.967 3528,166.645C3544.68,183.323 3553.01,205.308 3553.01,232.599L3553.01,1144.58C3553.01,1184 3565.52,1216.21 3590.54,1241.23C3615.56,1266.25 3648.53,1278.76 3689.47,1278.76C3719.79,1278.76 3734.95,1263.6 3734.95,1233.27L3734.95,232.599C3734.95,205.308 3743.29,183.323 3759.97,166.645C3776.65,149.967 3798.63,141.628 3825.93,141.628L3894.15,141.628C3921.44,141.628 3943.43,149.967 3960.11,166.645C3976.78,183.323 3985.12,205.308 3985.12,232.599L3985.12,1415.21C3985.12,1442.5 3976.78,1464.49 3960.11,1481.17C3943.43,1497.84 3921.44,1506.18 3894.15,1506.18L3666.73,1506.18C3557.56,1506.18 3469.62,1472.83 3402.91,1406.12C3336.2,1339.4 3302.85,1251.47 3302.85,1142.3L3302.85,232.599Z" style="fill:rgb(57,62,70);fill-rule:nonzero;"/>
        <path d="M4069.27,1415.21L4069.27,-108.54C4069.27,-135.831 4077.61,-157.816 4094.29,-174.493C4110.97,-191.171 4132.95,-199.51 4160.24,-199.51L4228.47,-199.51C4255.76,-199.51 4277.74,-191.171 4294.42,-174.493C4311.1,-157.816 4319.44,-135.831 4319.44,-108.54L4319.44,114.337C4319.44,144.661 4333.84,163.613 4362.65,171.194C4435.43,193.936 4501.38,225.776 4560.51,266.713C4619.64,307.649 4670.05,355.788 4711.75,411.128C4753.44,466.468 4785.66,528.631 4808.4,597.617C4831.15,666.603 4842.52,739.758 4842.52,817.083C4842.52,914.118 4825.46,1004.71 4791.35,1088.86C4757.23,1173 4709.85,1246.16 4649.21,1308.32C4588.56,1370.49 4516.54,1419 4433.15,1453.88C4349.76,1488.75 4258.79,1506.18 4160.24,1506.18C4132.95,1506.18 4110.97,1497.84 4094.29,1481.17C4077.61,1464.49 4069.27,1442.5 4069.27,1415.21ZM4319.44,1201.43C4319.44,1215.08 4323.23,1224.55 4330.81,1229.86C4338.39,1235.17 4348.25,1234.03 4360.38,1226.45C4433.15,1187.03 4490.01,1130.93 4530.94,1058.15C4571.88,985.378 4592.35,907.295 4592.35,823.906C4592.35,740.516 4571.88,662.433 4530.94,589.657C4490.01,516.881 4433.15,460.783 4360.38,421.362C4348.25,413.781 4338.39,412.644 4330.81,417.951C4323.23,423.257 4319.44,432.733 4319.44,446.379L4319.44,1201.43Z" style="fill:rgb(57,62,70);fill-rule:nonzero;"/>
        <path d="M4847.07,1415.21L4847.07,346.312C4847.07,319.02 4855.4,297.036 4872.08,280.358C4888.76,263.68 4910.75,255.341 4938.04,255.341L5006.26,255.341C5033.56,255.341 5055.54,263.68 5072.22,280.358C5088.9,297.036 5097.23,319.02 5097.23,346.312L5097.23,1415.21C5097.23,1442.5 5088.9,1464.49 5072.22,1481.17C5055.54,1497.84 5033.56,1506.18 5006.26,1506.18L4938.04,1506.18C4910.75,1506.18 4888.76,1497.84 4872.08,1481.17C4855.4,1464.49 4847.07,1442.5 4847.07,1415.21Z" style="fill:rgb(57,62,70);fill-rule:nonzero;"/>
        <g transform="matrix(1.21646,0,0,1.21646,-69.6488,-1206.66)">
            <path d="M4023.11,930.754C4023.11,897.102 4034.95,868.435 4058.63,844.754C4082.31,821.073 4110.98,809.232 4144.63,809.232C4179.53,809.232 4208.51,821.073 4231.57,844.754C4254.62,868.435 4266.15,897.102 4266.15,930.754C4266.15,964.406 4254.62,993.072 4231.57,1016.75C4208.51,1040.43 4179.53,1052.28 4144.63,1052.28C4110.98,1052.28 4082.31,1040.43 4058.63,1016.75C4034.95,993.072 4023.11,964.406 4023.11,930.754Z" style="fill:rgb(148,255,121);stroke:rgb(148,255,121);stroke-width:1.4px;"/>
        </g>
    </g>
    <g transform="matrix(0.76842,0,0,0.661155,526.46,529.839)">
        <g transform="matrix(1.30137,-0,-0,1.51251,-685.12,-801.383)">
            <path d="M1401.86,2340.6L1408.87,2403.51L1348.1,2385.79L1401.86,2340.6Z" style="fill:none;stroke:rgb(148,255,121);stroke-width:35.12px;stroke-linecap:round;stroke-linejoin:miter;stroke-miterlimit:10;"/>
            <path d="M3896.24,2138.18C3889.2,2120.12 3898.14,2099.75 3916.2,2092.71C3934.26,2085.67 3954.63,2094.61 3961.67,2112.67C3968.71,2130.72 3959.77,2151.1 3941.71,2158.14C3923.66,2165.18 3903.28,2156.24 3896.24,2138.18Z" style="fill:none;stroke:rgb(148,255,121);stroke-width:35.12px;stroke-linecap:round;stroke-linejoin:miter;stroke-miterlimit:10;"/>
            <path d="M1408.87,2403.51C1447.39,2449.34 1496.56,2507.83 1496.56,2507.83L1698.66,2511.6L1964.35,2365.32L2219.34,2407.79L2516.98,2455.95L2695.72,2452.84L3007.8,2335.53L3275.36,2315.03L3310.85,2471.15L3601.6,2472.29L3844.51,2311.1L3991.23,2285.14C3991.23,2285.14 3953.02,2187.14 3928.95,2125.42" style="fill:none;stroke:rgb(148,255,121);stroke-width:35.12px;stroke-linecap:round;stroke-miterlimit:0;stroke-dasharray:337.96,364.76,192.99,327.24,341.93,234.8;"/>
        </g>
    </g>
    <g transform="matrix(0.82863,0,0,0.82863,1475.8,1.49598)">
        <g transform="matrix(454.143,0,0,454.143,2854.36,2611.35)">
        </g>
        <text x="1243.97px" y="2611.35px" style="font-family:'SPACEFUTUREBold', 'SPACE FUTURE';font-weight:700;font-size:454.143px;fill:rgb(255,107,0);">L<tspan x="1526.9px 1675.41px 1941.53px 2090.04px 2395.22px 2543.73px " y="2611.35px 2611.35px 2611.35px 2611.35px 2611.35px 2611.35px "> A B S</tspan></text>
    </g>
</svg>
